<svg xmlns="http://www.w3.org/2000/svg" viewBox="0 0 480 480">
    <g>
        <path d="M275.9,400.11s21.08-7.45,29.45-13.58,16-9.57,26.41-20.45,22.12-29.91,22.12-29.91l2.8-5.62s17.25-6.87,17-19.08-7.05-17.53-7.05-17.53,0-8.59-4.58-11.69-7.91-3.32-7.91-3.32l.52-11.92s-.23-31.51-6.65-45.95a288.44,288.44,0,0,0-16.27-30.19l-14-15s9.85-22.63,0-34.26-18.79-19.6-30.48-17-21.37,8.94-25.9,14-4.87,7.62-4.87,7.62-19.31-4.35-40.16.52A170.36,170.36,0,0,0,178,161.24L152.82,181.3l-7.16,8.59s-27.38,4.36-34.55,25.44-.23,34.78-.23,34.78l2.07,4.58,2.46,3c-1,1.83-1,7.56-1.66,9.51-2.35,7-3.15,8.25-3.15,16,0,2.12,2,10.2,2.29,12.14s2.46,6.48,2.52,8.6c.17,4.52.92,4.41,1.78,8.59.8,4,1.54,4.87,3.15,8.54.74,1.72,1.77,5,2.86,6.7a53.41,53.41,0,0,1,3.9,7.74c2.69,7.22,4.64,6.87,8.65,13.69,2.18,3.61,6,8.94,9.22,11.4,2.87,2.18,2.81,2.7,5.05,5.68,1.26,1.66,3.15,2.4,4.58,3.89,1.15,1.15,4.41,3,7.79,5.67,4.07,3.16,11,8.43,15.64,10.72,14.5,7.16,39.37,15,39.37,15l29,1.78" fill="#22bdb6"/>
        <path d="M310,95.07A14.27,14.27,0,1,0,324.25,80.8h0A14.19,14.19,0,0,0,310,94.93Z" fill="#22bdb6"/>
        <path d="M190.64,267.93a72.18,72.18,0,0,0,14.27,13.18c9.22,6.59,28.47,8.53,28.47,8.53s20.06,5.05,36.79-8.08,22.51-25.72,21.71-45.26S277.1,201,266.79,196.42a97.52,97.52,0,0,0-20.06-6.07s-22.63-5.56-34.43,1.32-22.86,16.79-27.91,28.53S178.61,255.78,190.64,267.93Z" fill="#006e8c"/>
        <path d="M191.38,207.6a30.4,30.4,0,0,0-19.82-14c-13.81-2.87-24.75-6.48-34.95-1.72s-24.29,12.83-27.79,28.3-1.83,24.35,3.27,31.8,15.12,15.93,15.12,15.93l12.26,5.56s9.23,2.81,17.14,2.69a65.74,65.74,0,0,0,18.5-3.21l12.32-9Z" fill="#006e8c"/>
        <path d="M265.12,249.14S257,274.29,232.64,276,194.77,261.28,192,249.14s-2.52-28.71,14.67-41.72,37.88-7.9,47.5,2.07S269.25,235.16,265.12,249.14Z" fill="#d4fbff"/>
        <path d="M179.58,233.89s0-13.17-8.36-22.34-19.31-14-30.48-10.89-23.9,11.18-25.16,25.9S117.87,249.19,124,254a109.89,109.89,0,0,0,12.72,8.59l10.72,2.07a11.28,11.28,0,0,1,7.28-.81c4,1,7.56-3.26,7.56-3.26s4.07-1,10.66-8.88S179.58,233.89,179.58,233.89Z" fill="#d4fbff"/>
        <path d="M356.34,330.67S344,354.62,331.47,366.19s-28.47,26.82-49.9,32S217.4,412,177.92,386.65s-52.14-49-59.76-70-5-27.62-5-27.62S119,313.25,138.5,321.5s39.71,17.25,78.38,15.81a228.45,228.45,0,0,0,68.93-13.52s21.08-10,32.43-20.51,23.2-26,33.8-24.81,14,11,14.61,13.69c.35,1.55,8.43,9.69,6.76,18.22-.51,2.41-3.2,7.63-4.12,10.32C367.63,325.28,360,325.85,356.34,330.67Z" fill="#006e8c"/>
        <path d="M317.38,175.34a119.86,119.86,0,0,0-26.64-17.94c-15.24-7.27-33.92-11.8-33.92-11.8s16.38-28.53,42.34-19.42S323.85,159.35,317.38,175.34Z" fill="#006e8c"/>
        <path d="M346.66,292.62a23.81,23.81,0,0,0-7,18.85c.74,12.21,5.9,17.82,10.54,18.57a21.58,21.58,0,0,0,22.57-14.67c4.82-13.69-6.59-21.94-11.57-24.81S349.75,289,346.66,292.62Z" fill="#22bdb6"/>
        <path d="M113.23,289s3.9,24,33.81,36.1,47,16.44,100.55,8.94,68.76-29.11,68.76-29.11-38.1,14.67-82.62,17.71-74.26.51-107.61-18.68C115.3,297.78,113.23,289,113.23,289Z" fill="#fff"/>
        <path d="M332.85,289c.46-.46,15.3-80.84-41-131,18.05,11.52,23,11.46,36.5,29.68,16,21.66,25.9,48,25.9,65.09s-.52,25.56-.52,25.56a33.62,33.62,0,0,0-12.09,2.8A20.81,20.81,0,0,0,332.85,289Z" opacity="0.2" style="isolation: isolate"/>
        <path d="M304.49,128.87s5.61,9.86-8.14,30.37c11.4,7.56,21.2,15.75,21.2,15.75s7.62-16.1,3.78-25.32-16.9-21.89-16.9-21.89" opacity="0.2" style="isolation: isolate"/>
        <path d="M319.44,106.7a10.37,10.37,0,1,0,0-20.74h0a10.52,10.52,0,0,0-8.94,5,14.3,14.3,0,1,1,3.73,14.32A10.44,10.44,0,0,0,319.44,106.7Z" opacity="0.2" style="isolation: isolate"/>
        <path d="M243.41,189.55s25.9,8.48,34.38,29.73.46,47-15.13,56.9A101.41,101.41,0,0,1,230,289s24.47,8,47.73-12.83,12.43-54.32,7.79-61.19S266.61,189.78,243.41,189.55Z" opacity="0.3" style="isolation: isolate"/>
        <path d="M187,212.87a26.22,26.22,0,0,0-10.83-13.3,89.07,89.07,0,0,0-15.29-8s10.31-1.2,22.46,8.25,8.13,7.91,8.13,7.91Z" opacity="0.3" style="isolation: isolate"/>
        <polygon points="183.82 256.47 172.65 268.67 153.57 275.89 172.59 274.69 187.37 263.98 183.82 256.47" opacity="0.3" style="isolation: isolate"/>
        <path d="M245,404.18c18.16-1,40.79-5.1,60-17.59,39.31-25.56,51.28-56,51.28-56s-26.7-3.44-13.92-29.85c7.39-15.24,13.23-11.8,13.23-11.8l10.83,4.35s1.89-8.42-7.5-12.49-23.26,0-29.39,11.92c0,0,3.55,61.93-37.65,87.2a155.24,155.24,0,0,1-71.1,22.69" opacity="0.2" style="isolation: isolate"/>
        <path d="M276.7,400.05,266.56,403" opacity="0.2" style="isolation: isolate"/>
        <path d="M355.65,289s13.92,10.37,12.61,22.28-11.46,18.28-11.46,18.28,19.42-8.54,17-23.32S355.65,289,355.65,289Z" opacity="0.2" style="isolation: isolate"/>
        <path d="M119.19,303.22s21.09,23.9,76.21,25.9,98.26-12.38,111.38-17.19,9.51-7,9.51-7-46.93,14.21-69.21,16.33-54,5.85-89.5-3.95-43.32-23.72-43.32-23.72Z" opacity="0.2" style="isolation: isolate"/>
        <polygon points="226.85 171.73 275.84 187.54 279.39 174.25 229.94 152.71 226.85 171.73"/>
        <polygon points="182.16 172.7 135.75 182.5 132.94 170.87 180.5 153.45 182.16 172.7"/>
        <path d="M317.15,175.68a33.67,33.67,0,0,0-57.76-34.6,32.18,32.18,0,0,0-2.46,5" fill="none" stroke="#000" stroke-linecap="round" stroke-linejoin="round" stroke-width="4"/>
        <line x1="304.49" y1="128.87" x2="320.64" y2="101.71" fill="none" stroke="#000" stroke-linecap="round" stroke-linejoin="round" stroke-width="4"/>
        <path d="M310.33,96.21a13.91,13.91,0,1,0,12.84-14.89h0A13.94,13.94,0,0,0,310.33,96.21Z" fill="none" stroke="#000" stroke-linecap="round" stroke-linejoin="round" stroke-width="4"/>
        <path d="M367.17,294.86s-2.06-17.08-18.05-16.45c-13.46.58-24.87,28.31-60.1,44.06-22.23,10-72.83,19.89-108.35,13.07-52.25-10.09-65.83-28.48-70-59" fill="none" stroke="#000" stroke-linecap="round" stroke-linejoin="round" stroke-width="4"/>
        <path d="M316.35,304.88s-71.68,27.68-146.45,16c-35.81-8.42-49.85-19.65-55.81-28.53" fill="none" stroke="#000" stroke-linecap="round" stroke-linejoin="round" stroke-width="4"/>
        <path d="M339.84,308.49c-1,11.41,4.58,21.15,12.43,21.78s20.23-8.48,21.14-19.83-10-20.85-17.76-21.48S340.81,297,339.84,308.49Z" fill="none" stroke="#000" stroke-linecap="round" stroke-linejoin="round" stroke-width="4"/>
        <path d="M355.65,289s12,8.48,12.61,20.28S356.57,330,356.57,330" fill="none" stroke="#000" stroke-linecap="round" stroke-linejoin="round" stroke-width="4"/>
        <path d="M228,288.44a50.28,50.28,0,1,0,27.33-96.77h0A49.37,49.37,0,0,0,245,189.89" fill="none" stroke="#000" stroke-linecap="round" stroke-linejoin="round" stroke-width="4"/>
        <path d="M181.07,242a50.3,50.3,0,1,0,46.41-53.91h0A50.42,50.42,0,0,0,181.07,242Z" fill="none" stroke="#000" stroke-linecap="round" stroke-linejoin="round" stroke-width="4"/>
        <path d="M190.64,241.34a38.12,38.12,0,1,0,35.18-40.85h0a38.12,38.12,0,0,0-35.18,40.85Z" fill="none" stroke="#000" stroke-linecap="round" stroke-linejoin="round" stroke-width="4"/>
        <path d="M191.9,207.14a42.39,42.39,0,0,0-30.65-16" fill="none" stroke="#000" stroke-linecap="round" stroke-linejoin="round" stroke-width="4"/>
        <path d="M147,274.63a42.72,42.72,0,0,0,40.91-10.14" fill="none" stroke="#000" stroke-linecap="round" stroke-linejoin="round" stroke-width="4"/>
        <path d="M187.6,212.52a42.42,42.42,0,1,0-3,44.24" fill="none" stroke="#000" stroke-linecap="round" stroke-linejoin="round" stroke-width="4"/>
        <path d="M115.3,234.64A32.31,32.31,0,1,0,145.15,200h0A32.36,32.36,0,0,0,115.3,234.64Z" fill="none" stroke="#000" stroke-linecap="round" stroke-linejoin="round" stroke-width="4"/>
        <path d="M144.92,189.49a117.11,117.11,0,0,1,209.41,72,114.21,114.21,0,0,1-1.2,16.62" fill="none" stroke="#000" stroke-linecap="round" stroke-linejoin="round" stroke-width="3.59"/>
        <path d="M355.82,330.38c-15.52,33.23-44.46,59.7-80.38,69.5a112.61,112.61,0,0,1-28,4.47" fill="none" stroke="#000" stroke-linecap="round" stroke-linejoin="round" stroke-width="4.54"/>
        <path d="M253.09,403.83c-3.32.23-6.64.41-10,.41a132.41,132.41,0,0,1-130.3-108.75c-1.37-7.62-1.71-11-1.71-11s-2.35-9.69,1.77-14.1" fill="none" stroke="#000" stroke-linecap="round" stroke-linejoin="round" stroke-width="3.92"/>
        <path d="M115.64,257.79s-3.78,12.54-1.32,35.75" fill="none" stroke="#000" stroke-linecap="round" stroke-linejoin="round" stroke-width="4"/>
        <path d="M199.23,229.25A10.52,10.52,0,1,0,208.92,218h0A10.64,10.64,0,0,0,199.23,229.25Z"/>
        <path d="M124.35,223.87a8.59,8.59,0,1,0,8-9.23A8.71,8.71,0,0,0,124.35,223.87Z"/>
        <line x1="182.16" y1="322.47" x2="182.16" y2="335.02" fill="none" stroke="#000" stroke-linecap="round" stroke-linejoin="round" stroke-width="4"/>
        <line x1="155.29" y1="317.26" x2="155.29" y2="329.12" fill="none" stroke="#000" stroke-linecap="round" stroke-linejoin="round" stroke-width="3.89"/>
        <line x1="132.94" y1="308.04" x2="132.94" y2="317.66" fill="none" stroke="#000" stroke-linecap="round" stroke-linejoin="round" stroke-width="3.51"/>
        <line x1="212.24" y1="324.65" x2="212.24" y2="337.2" fill="none" stroke="#000" stroke-linecap="round" stroke-linejoin="round" stroke-width="4"/>
        <line x1="243.29" y1="321.96" x2="243.29" y2="334.56" fill="none" stroke="#000" stroke-linecap="round" stroke-linejoin="round" stroke-width="4"/>
        <line x1="274.18" y1="317.55" x2="274.18" y2="326.43" fill="none" stroke="#000" stroke-linecap="round" stroke-linejoin="round" stroke-width="3.38"/>
    </g>
</svg>